<svg xmlns="http://www.w3.org/2000/svg" width="355.447" height="307.017" viewBox="0 0 355.447 307.017">
  <g id="Group_188" data-name="Group 188" transform="translate(-505.5 -306.177)">
    <g id="Group_183" data-name="Group 183" transform="translate(7.015 -10)">
      <g id="Group_176" data-name="Group 176" transform="translate(327 258)">
        <rect id="Rectangle_2" data-name="Rectangle 2" width="123.751" height="74.75" rx="3.206" transform="translate(248.891 77.505)" fill="none" stroke="#c0ccd8" stroke-miterlimit="10" stroke-width="1"/>
        <line id="Line_1" data-name="Line 1" x2="123.751" transform="translate(248.891 91.05)" fill="none" stroke="#c0ccd8" stroke-miterlimit="10" stroke-width="1"/>
        <circle id="Ellipse_1" data-name="Ellipse 1" cx="1.978" cy="1.978" r="1.978" transform="translate(254.906 82.374)" fill="none" stroke="#c0ccd8" stroke-miterlimit="10" stroke-width="1"/>
        <path id="Path_1" data-name="Path 1" d="M267,84.352a1.978,1.978,0,1,1-1.978-1.978A1.978,1.978,0,0,1,267,84.352Z" fill="none" stroke="#c0ccd8" stroke-miterlimit="10" stroke-width="1"/>
        <path id="Path_2" data-name="Path 2" d="M275.138,84.352a1.978,1.978,0,1,1-1.978-1.978A1.978,1.978,0,0,1,275.138,84.352Z" fill="none" stroke="#c0ccd8" stroke-miterlimit="10" stroke-width="1"/>
      </g>
      <g id="Group_177" data-name="Group 177" transform="translate(370 279)">
        <g id="Group_4" data-name="Group 4">
          <g id="Group_2" data-name="Group 2">
            <rect id="Rectangle_3" data-name="Rectangle 3" width="39.503" height="39.503" rx="5.12" transform="translate(178.852 120.573)" fill="none" stroke="#c0ccd8" stroke-linejoin="round" stroke-width="1"/>
          </g>
          <g id="Group_3" data-name="Group 3">
            <circle id="Ellipse_2" data-name="Ellipse 2" cx="11.314" cy="11.314" r="11.314" transform="translate(187.29 129.01)" fill="none" stroke="#c0ccd8" stroke-miterlimit="10" stroke-width="3"/>
            <line id="Line_2" data-name="Line 2" x1="15.974" y2="15.974" transform="translate(190.268 132.337)" fill="none" stroke="#c0ccd8" stroke-miterlimit="10" stroke-width="3"/>
          </g>
        </g>
      </g>
      <path id="Path_119" data-name="Path 119" d="M96.442,204.5a2.229,2.229,0,1,1-2.228-2.228A2.228,2.228,0,0,1,96.442,204.5Z" transform="translate(407 258)" fill="none" stroke="#c0ccd8" stroke-linecap="round" stroke-linejoin="round" stroke-width="1"/>
      <g id="Group_178" data-name="Group 178" transform="translate(327 258)">
        <line id="Line_7" data-name="Line 7" y2="6.901" transform="translate(293.163 58.677)" fill="none" stroke="#c0ccd8" stroke-linecap="round" stroke-linejoin="round" stroke-width="1"/>
        <line id="Line_8" data-name="Line 8" x1="6.9" transform="translate(289.712 62.127)" fill="none" stroke="#c0ccd8" stroke-linecap="round" stroke-linejoin="round" stroke-width="1"/>
      </g>
      <g id="Group_179" data-name="Group 179" transform="translate(407 258)">
        <line id="Line_9" data-name="Line 9" y2="6.9" transform="translate(138.696 125.375)" fill="none" stroke="#c0ccd8" stroke-linecap="round" stroke-linejoin="round" stroke-width="1"/>
        <line id="Line_10" data-name="Line 10" x1="6.9" transform="translate(135.246 128.825)" fill="none" stroke="#c0ccd8" stroke-linecap="round" stroke-linejoin="round" stroke-width="1"/>
      </g>
      <g id="Group_180" data-name="Group 180" transform="translate(407 258)">
        <line id="Line_11" data-name="Line 11" y2="6.9" transform="translate(127.465 284.249)" fill="none" stroke="#c0ccd8" stroke-linecap="round" stroke-linejoin="round" stroke-width="1"/>
        <line id="Line_12" data-name="Line 12" x1="6.9" transform="translate(124.014 287.699)" fill="none" stroke="#c0ccd8" stroke-linecap="round" stroke-linejoin="round" stroke-width="1"/>
      </g>
      <path id="Path_120" data-name="Path 120" d="M178.8,244.962h-69.05a2.185,2.185,0,0,1-2.185-2.185h0a2.184,2.184,0,0,1,2.185-2.184H178.8a2.184,2.184,0,0,1,2.185,2.184h0A2.185,2.185,0,0,1,178.8,244.962Z" transform="translate(407 258)" fill="none" stroke="#c0ccd8" stroke-miterlimit="10" stroke-width="1"/>
      <path id="Path_121" data-name="Path 121" d="M153.139,225.657H133.613a1.092,1.092,0,0,1-1.092-1.092h0a1.092,1.092,0,0,1,1.092-1.092h19.526a1.092,1.092,0,0,1,1.092,1.092h0A1.092,1.092,0,0,1,153.139,225.657Z" transform="translate(407 258)" fill="#c0ccd8"/>
    </g>
    <g id="Group_182" data-name="Group 182" transform="translate(877.015 -2828)">
      <g id="Group_12" data-name="Group 12" transform="translate(-650 3073)">
        <g id="Group_11" data-name="Group 11">
          <g id="Group_8" data-name="Group 8">
            <rect id="Rectangle_4" data-name="Rectangle 4" width="39.503" height="39.503" rx="5.12" transform="translate(593.929 235.585)" fill="none" stroke="#c0ccd8" stroke-linejoin="round" stroke-width="1"/>
          </g>
          <g id="Group_10" data-name="Group 10">
            <g id="Group_9" data-name="Group 9">
              <path id="Path_7" data-name="Path 7" d="M626.412,266.43a1.415,1.415,0,0,1-.473.081l-24.517.008a1.437,1.437,0,0,1-1.246-2.156l12.252-21.237a1.436,1.436,0,0,1,2.489,0l12.267,21.229a1.437,1.437,0,0,1-.772,2.076ZM602.1,264.692l23.166-.009-11.59-20.058Z" fill="#c0ccd8"/>
            </g>
            <path id="Path_8" data-name="Path 8" d="M613.678,260.471h0a.868.868,0,0,1-.867-.829l-.5-8.356a1.361,1.361,0,0,1,1.359-1.423h0a1.362,1.362,0,0,1,1.361,1.422l-.49,8.357A.869.869,0,0,1,613.678,260.471Z" fill="#c0ccd8"/>
            <path id="Path_9" data-name="Path 9" d="M614.563,262.486a.884.884,0,1,1-.884-.883A.884.884,0,0,1,614.563,262.486Z" fill="#c0ccd8"/>
          </g>
        </g>
      </g>
      <path id="Path_12" data-name="Path 12" d="M623.942,140.324a2.229,2.229,0,1,1-2.229-2.228A2.228,2.228,0,0,1,623.942,140.324Z" transform="translate(-650 3073)" fill="none" stroke="#c0ccd8" stroke-linecap="round" stroke-linejoin="round" stroke-width="1"/>
      <path id="Path_13" data-name="Path 13" d="M503.662,71.4a2.229,2.229,0,1,1-2.229-2.228A2.228,2.228,0,0,1,503.662,71.4Z" transform="translate(-650 3073)" fill="none" stroke="#c0ccd8" stroke-linecap="round" stroke-linejoin="round" stroke-width="1"/>
      <g id="Group_13" data-name="Group 13" transform="translate(-650 3073)">
        <line id="Line_3" data-name="Line 3" y2="6.9" transform="translate(619.485 213.203)" fill="none" stroke="#c0ccd8" stroke-linecap="round" stroke-linejoin="round" stroke-width="1"/>
        <line id="Line_4" data-name="Line 4" x1="6.901" transform="translate(616.035 216.654)" fill="none" stroke="#c0ccd8" stroke-linecap="round" stroke-linejoin="round" stroke-width="1"/>
      </g>
      <g id="Group_18" data-name="Group 18" transform="translate(-650 3073)">
        <line id="Line_13" data-name="Line 13" y2="6.901" transform="translate(518.615 97.746)" fill="none" stroke="#c0ccd8" stroke-linecap="round" stroke-linejoin="round" stroke-width="1"/>
        <line id="Line_14" data-name="Line 14" x1="6.9" transform="translate(515.164 101.197)" fill="none" stroke="#c0ccd8" stroke-linecap="round" stroke-linejoin="round" stroke-width="1"/>
      </g>
      <path id="Path_15" data-name="Path 15" d="M585.366,189.821h-69.05a2.185,2.185,0,0,1-2.185-2.185h0a2.184,2.184,0,0,1,2.185-2.184h69.05a2.184,2.184,0,0,1,2.184,2.184h0A2.184,2.184,0,0,1,585.366,189.821Z" transform="translate(-650 3073)" fill="none" stroke="#c0ccd8" stroke-miterlimit="10" stroke-width="1"/>
      <path id="Path_16" data-name="Path 16" d="M595.474,204.5H569.949a1.092,1.092,0,0,1-1.092-1.092h0a1.091,1.091,0,0,1,1.092-1.092h25.525a1.091,1.091,0,0,1,1.092,1.092h0A1.092,1.092,0,0,1,595.474,204.5Z" transform="translate(-650 3073)" fill="#c0ccd8"/>
      <path id="Path_17" data-name="Path 17" d="M527.927,152.467H502.4a1.092,1.092,0,0,1-1.092-1.092h0a1.092,1.092,0,0,1,1.092-1.093h25.525a1.092,1.092,0,0,1,1.092,1.093h0A1.092,1.092,0,0,1,527.927,152.467Z" transform="translate(-650 3073)" fill="#c0ccd8"/>
      <g id="Group_21" data-name="Group 21" transform="translate(-650 3073)">
        <path id="Rectangle_5" data-name="Rectangle 5" d="M3.7,0h21.14a3.7,3.7,0,0,1,3.7,3.7v21.14a3.7,3.7,0,0,1-3.7,3.7H3.7a3.7,3.7,0,0,1-3.7-3.7V3.7A3.7,3.7,0,0,1,3.7,0Z" transform="translate(572.089 129.279) rotate(180)" fill="none" stroke="#c0ccd8" stroke-linejoin="round" stroke-width="1"/>
        <g id="Group_20" data-name="Group 20">
          <g id="Group_19" data-name="Group 19">
            <path id="Path_19" data-name="Path 19" d="M561.862,113.806l-.5,2.451h2.727v2.177h-3.139l-.813,4.289h-2.325l.825-4.289h-3l-.8,4.289h-2.272l.782-4.289H550.83v-2.177h2.926l.5-2.451h-2.661V111.6h3.053l.813-4.3h2.314l-.813,4.3H560l.823-4.3H563.1l-.824,4.3h2.536v2.208Zm-5.814,2.451h3.025l.5-2.451h-3.024Z" fill="#c0ccd8"/>
          </g>
        </g>
      </g>
    </g>
    <g id="Group_187" data-name="Group 187">
      <g id="Rectangle_151" data-name="Rectangle 151" transform="translate(590 448)" fill="none" stroke="#bfcbd6" stroke-width="1" stroke-dasharray="5">
        <rect width="127" height="160" stroke="none"/>
        <rect x="0.5" y="0.5" width="126" height="159" fill="none"/>
      </g>
      <rect id="Rectangle_150" data-name="Rectangle 150" width="129" height="168" rx="4" transform="translate(648.015 414)" fill="#d2dce5"/>
      <g id="Group_186" data-name="Group 186">
        <g id="Group_35" data-name="Group 35" transform="translate(603.991 432.101)">
          <path id="Path_66" data-name="Path 66" d="M422.261,607.031H289V441H400l22.258,20.747Z" transform="translate(-289 -441)" fill="#f0f6fa"/>
          <path id="Path_67" data-name="Path 67" d="M340,441v21.846h21.846" transform="matrix(0.999, -0.035, 0.035, 0.999, -244.143, -428.478)" fill="#bfcbd6"/>
        </g>
        <g id="Group_185" data-name="Group 185" transform="translate(-269.985 66)">
          <rect id="Rectangle_41" data-name="Rectangle 41" width="39.323" height="2.185" transform="translate(898.007 436.009)" fill="#bfcbd6"/>
          <rect id="Rectangle_42" data-name="Rectangle 42" width="39.323" height="2.185" transform="translate(898.007 449.116)" fill="#bfcbd6"/>
          <rect id="Rectangle_43" data-name="Rectangle 43" width="39.323" height="2.185" transform="translate(898.007 460.039)" fill="#bfcbd6"/>
          <rect id="Rectangle_44" data-name="Rectangle 44" width="41.508" height="2.185" transform="translate(943.884 460.039)" fill="#bfcbd6"/>
          <rect id="Rectangle_45" data-name="Rectangle 45" width="41.508" height="2.185" transform="translate(943.884 470.963)" fill="#bfcbd6"/>
          <rect id="Rectangle_46" data-name="Rectangle 46" width="39.323" height="2.185" transform="translate(898.007 492.809)" fill="#bfcbd6"/>
          <rect id="Rectangle_47" data-name="Rectangle 47" width="39.323" height="2.185" transform="translate(898.007 503.732)" fill="#bfcbd6"/>
          <rect id="Rectangle_48" data-name="Rectangle 48" width="41.508" height="2.185" transform="translate(943.884 492.809)" fill="#bfcbd6"/>
          <rect id="Rectangle_49" data-name="Rectangle 49" width="41.508" height="2.185" transform="translate(943.884 503.732)" fill="#bfcbd6"/>
          <rect id="Rectangle_52" data-name="Rectangle 52" width="41.508" height="2.185" transform="translate(943.884 481.886)" fill="#bfcbd6"/>
          <rect id="Rectangle_53" data-name="Rectangle 53" width="39.323" height="17.477" transform="translate(944.976 434.916)" fill="none" stroke="#bfcbd6" stroke-miterlimit="10" stroke-width="1"/>
          <path id="Path_123" data-name="Path 123" d="M0,0H37.138V15.292H0Z" transform="translate(899.099 469.87)" fill="none" stroke="#bfcbd6" stroke-width="1"/>
        </g>
        <g id="Group_184" data-name="Group 184" transform="translate(-272.985 66)">
          <circle id="Ellipse_3" data-name="Ellipse 3" cx="4.5" cy="4.5" r="4.5" transform="translate(919 391)" fill="#bfcbd6"/>
          <circle id="Ellipse_4" data-name="Ellipse 4" cx="4.5" cy="4.5" r="4.5" transform="translate(959 391)" fill="#bfcbd6"/>
          <path id="Path_122" data-name="Path 122" d="M682.457,3778.692s3.143-11.5,11.766-11.279a12.642,12.642,0,0,1,12.377,11.279" transform="translate(249.505 -3362.596)" fill="none" stroke="#bfcbd6" stroke-width="2"/>
        </g>
      </g>
      <g id="loupe" transform="translate(711.822 531.807)">
        <path id="Path_124" data-name="Path 124" d="M28.037,0A28.022,28.022,0,0,1,50.36,44.98l5.68,5.68a1.344,1.344,0,0,1,.1.113,7,7,0,0,1,1.429-.148,6.9,6.9,0,0,1,4.91,2.034L79.353,69.534a6.943,6.943,0,1,1-9.82,9.819L52.658,62.478a6.9,6.9,0,0,1-2.034-4.909,7,7,0,0,1,.148-1.429,1.3,1.3,0,0,1-.113-.1L44.98,50.36A28.032,28.032,0,1,1,28.037,0ZM71.4,77.488a4.306,4.306,0,1,0,6.091-6.09l-15.24-15.24-6.09,6.09ZM54.3,60.375l6.069-6.069A4.3,4.3,0,0,0,54.3,60.375Zm-2.4-6.821A6.924,6.924,0,0,1,53.554,51.9L48.66,47.01q-.791.859-1.651,1.651Zm-23.866-.117a25.4,25.4,0,1,0-25.4-25.4A25.429,25.429,0,0,0,28.037,53.437Z" transform="translate(0)" fill="#93a7ba"/>
        <path id="Path_125" data-name="Path 125" d="M198.413,32A22.412,22.412,0,1,1,176,54.412,22.437,22.437,0,0,1,198.413,32Zm0,42.187a19.775,19.775,0,1,0-19.775-19.775A19.8,19.8,0,0,0,198.413,74.187Z" transform="translate(-170.376 -26.375)" fill="#93a7ba"/>
        <path id="Path_126" data-name="Path 126" d="M351.617,78.434a1.318,1.318,0,0,1,1.44,2.209,14.154,14.154,0,0,0-3.2,20.869,1.318,1.318,0,0,1-2.033,1.679,16.79,16.79,0,0,1,3.795-24.757Z" transform="translate(-332.734 -64.47)" fill="#93a7ba"/>
        <path id="Path_127" data-name="Path 127" d="M297.081,64.277A16.926,16.926,0,0,1,300.132,64a1.318,1.318,0,0,1,0,2.637,14.284,14.284,0,0,0-2.574.233,1.318,1.318,0,1,1-.476-2.593Z" transform="translate(-272.095 -52.75)" fill="#93a7ba"/>
      </g>
    </g>
  </g>
</svg>
